<svg xmlns="http://www.w3.org/2000/svg" width="24" height="24" fill="" viewBox="0 0 24 24">
  <path d="M17.472 14.382c-.297-.149-1.758-.867-2.031-.967-.273-.099-.472-.148-.672.15-.198.297-.767.966-.94 1.164-.173.198-.347.223-.644.074-.297-.15-1.255-.462-2.39-1.475-.883-.788-1.48-1.761-1.653-2.059-.173-.297-.018-.458.13-.606.134-.134.297-.347.446-.52.149-.174.198-.298.298-.497.099-.198.05-.372-.025-.52-.075-.148-.672-1.623-.92-2.224-.242-.583-.487-.503-.672-.513l-.573-.01c-.198 0-.52.074-.792.372s-1.04 1.017-1.04 2.479 1.065 2.876 1.213 3.074c.149.198 2.096 3.2 5.077 4.487.709.306 1.262.489 1.694.626.712.227 1.36.195 1.872.118.571-.085 1.758-.719 2.007-1.412.248-.694.248-1.288.173-1.412-.074-.124-.272-.198-.57-.347m-5.421 6.318h-.002a9.87 9.87 0 0 1-5.031-1.378l-.361-.214-3.741.982.998-3.648-.235-.374a9.86 9.86 0 0 1-1.51-5.261c.001-5.45 4.436-9.884 9.888-9.884a9.82 9.82 0 0 1 6.993 2.896 9.825 9.825 0 0 1 2.893 6.994c-.003 5.45-4.437 9.884-9.887 9.884M20.52 3.48A11.915 11.915 0 0 0 12.004 0C5.383 0 0 5.383 0 12c0 2.113.552 4.174 1.6 5.978L0 24l6.177-1.623A11.94 11.94 0 0 0 12.003 24C18.627 24 24 18.627 24 12a11.91 11.91 0 0 0-3.48-8.52" />
</svg>
