<svg xmlns="http://www.w3.org/2000/svg" width="20" height="20" viewBox="0 0 533.5 544.3">
  <path fill="#4285f4" d="M533.5 278.4c0-18.6-1.6-37.2-5.2-55.2H272v104.5h146.9c-6.4 34.2-26.1 63.3-55.5 82.8v68h89.7c52.4-48.3 80.4-119.5 80.4-200.1z"/>
  <path fill="#34a853" d="M272 544.3c73.5 0 135.3-24.5 180.4-66.5l-89.7-68c-25 16.6-56.9 26.3-90.7 26.3-69.8 0-129.2-47.2-150.3-110.4h-92.1v69.5c44.7 87.5 135.4 149.1 242.4 149.1z"/>
  <path fill="#fbbc04" d="M121.7 325.7c-10.5-31.5-10.5-65.5 0-97l-92.1-69.5c-39.2 77.7-39.2 168.3 0 246z"/>
  <path fill="#ea4335" d="M272 107.7c38.8 0 74.1 13.4 101.7 39.5l76.2-76.2C407.3 24.5 345.5 0 272 0 165 0 74.3 61.6 29.6 149.1l92.1 69.5c21.1-63.2 80.5-110.9 150.3-110.9z"/>
</svg>
