<svg xmlns="http://www.w3.org/2000/svg"
     width="140"
     height="140"
     viewBox="0 0 140 140"
     role="img"
     aria-label="Social icons grid">

  <!-- FACEBOOK (top-left) -->
  <g transform="translate(22,22) scale(2)">
    <path d="M18 2h-3a5 5 0 0 0-5 5v3H7v4h3v8h4v-8h3l1-4h-4V7a1 1 0 0 1 1-1h3z"
          fill="currentColor"
          stroke="none"/>
  </g>

  <!-- LINKEDIN (top-right) -->
  <g transform="translate(78,22) scale(2)"
     fill="none"
     stroke="currentColor"
     stroke-width="2"
     stroke-linecap="round"
     stroke-linejoin="round">
    <path d="M16 8a6 6 0 0 1 6 6v7h-4v-7a2 2 0 0 0-2-2 2 2 0 0 0-2 2v7h-4v-7a6 6 0 0 1 6-6z"/>
    <rect x="2" y="9" width="4" height="12"/>
    <circle cx="4" cy="4" r="2"/>
  </g>

  <!-- TWITTER (bottom-left) -->
  <g transform="translate(22,78) scale(2)"
     fill="none"
     stroke="currentColor"
     stroke-width="2"
     stroke-linecap="round"
     stroke-linejoin="round">
    <path d="M23 3a10.9 10.9 0 0 1-3.14 1.53 4.48 4.48 0 0 0-7.86 3v1A10.66 10.66 0 0 1 3 4s-4 9 5 13a11.64 11.64 0 0 1-7 2c9 5 20 0 20-11.5a4.5 4.5 0 0 0-.08-.83A7.72 7.72 0 0 0 23 3z"/>
  </g>

  <!-- INSTAGRAM (bottom-right) -->
  <g transform="translate(78,78) scale(2)"
     fill="none"
     stroke="currentColor"
     stroke-width="2"
     stroke-linecap="round"
     stroke-linejoin="round">
    <rect x="4" y="4" width="16" height="16" rx="4" ry="4"/>
    <circle cx="12" cy="12" r="3"/>
    <circle cx="16.5" cy="7.5" r="0.5" fill="currentColor" stroke="none"/>
  </g>

</svg>
